<svg xmlns="http://www.w3.org/2000/svg" viewBox="0 0 240.06 239.57"><defs><style>.cls-1{fill:#91d700;}</style></defs><title>Asset 1</title><g id="Layer_2" data-name="Layer 2"><g id="Ebene_1" data-name="Ebene 1"><path class="cls-1" d="M96.1,111.68a6.53,6.53,0,0,1-6.52-6.46c0-3-.21-6-.42-9.27-.28-4.57-.58-9.29-.4-14a6.52,6.52,0,0,1,6.51-6.28h.24a6.52,6.52,0,0,1,6.28,6.76c-.15,4.1.12,8.3.39,12.75.21,3.26.42,6.63.45,10a6.53,6.53,0,0,1-6.46,6.59Z"/><path class="cls-1" d="M145,111.68a6.52,6.52,0,0,1-6.15-4.36c-1.85-5.23-.6-22.91,1.47-27.74a6.52,6.52,0,0,1,12,5.11c-1,2.71-1.76,15.51-1.12,18.45a6.53,6.53,0,0,1-4,8.17A6.6,6.6,0,0,1,145,111.68Z"/><path class="cls-1" d="M115.24,176c-1.62,0-3.23-.06-4.82-.19-23.1-1.89-41.31-17.1-49.94-41.72a4.35,4.35,0,1,1,8.21-2.88c7.55,21.55,22.62,34.31,42.44,35.93,23.88,2,49.54-13.09,62.38-36.58a4.35,4.35,0,1,1,7.63,4.17,81.29,81.29,0,0,1-30.87,31.56A71.38,71.38,0,0,1,115.24,176Z"/><path class="cls-1" d="M131.18,239.57a112.09,112.09,0,0,1-30.35-4.28q-5.25,0-10.38-.54a94.76,94.76,0,0,1-53.67-23.4C4.47,182.72-8.3,133.29,5.51,90.74,7.39,59.44,22.43,33.89,48.3,18.36,81.14-1.35,118.74-5.34,154.16,7.12c36,12.67,65.27,41.4,78.36,76.86a118.39,118.39,0,0,1,3.58,71.86A115.38,115.38,0,0,1,200.79,213a105.92,105.92,0,0,1-56.48,25.79A104.37,104.37,0,0,1,131.18,239.57ZM18.36,96.72h0c-.31,42.36,25.9,90.7,61,112.45a122.46,122.46,0,0,0,27.43,12.94c14.34-.81,30.92-4.83,49.84-13.87a6.52,6.52,0,0,1,8.12,9.68,76.36,76.36,0,0,0,13-9c16.46-13.91,28.7-35.16,34.48-59.83s4.32-49.76-4.14-70.43C193.37,42.8,159.65,25,113.13,28.45,87.69,30.37,66.32,37.69,49.6,50.23A90,90,0,0,0,18.9,91.91C18.68,93.51,18.5,95.11,18.36,96.72ZM113,13.07A112.29,112.29,0,0,0,55,29.54,77.85,77.85,0,0,0,40,41.17c.59-.47,1.18-.92,1.79-1.38,18.73-14,42.41-22.24,70.37-24.35a156.46,156.46,0,0,1,23-.1A108.87,108.87,0,0,0,113,13.07Z"/></g></g></svg>